<?xml version="1.0" encoding="UTF-8" standalone="no"?>
<svg
   xmlns:dc="http://purl.org/dc/elements/1.1/"
   xmlns:cc="http://creativecommons.org/ns#"
   xmlns:rdf="http://www.w3.org/1999/02/22-rdf-syntax-ns#"
   xmlns:svg="http://www.w3.org/2000/svg"
   xmlns="http://www.w3.org/2000/svg"
   xmlns:sodipodi="http://sodipodi.sourceforge.net/DTD/sodipodi-0.dtd"
   xmlns:inkscape="http://www.inkscape.org/namespaces/inkscape"
   viewBox="0 0 600 600.00031"
   height="600.00031"
   width="600"
   xml:space="preserve"
   id="svg2"
   version="1.1"
   inkscape:version="0.91 r13725"
   sodipodi:docname="logo.svg"><sodipodi:namedview
     pagecolor="#ffffff"
     bordercolor="#666666"
     borderopacity="1"
     objecttolerance="10"
     gridtolerance="10"
     guidetolerance="10"
     inkscape:pageopacity="0"
     inkscape:pageshadow="2"
     inkscape:window-width="1920"
     inkscape:window-height="1137"
     id="namedview44"
     showgrid="false"
     fit-margin-top="1"
     fit-margin-left="1"
     fit-margin-right="1"
     fit-margin-bottom="1"
     inkscape:zoom="1"
     inkscape:cx="306.47075"
     inkscape:cy="306.36968"
     inkscape:window-x="1072"
     inkscape:window-y="268"
     inkscape:window-maximized="1"
     inkscape:current-layer="svg2" /><metadata
     id="metadata8"><rdf:RDF><cc:Work
         rdf:about=""><dc:format>image/svg+xml</dc:format><dc:type
           rdf:resource="http://purl.org/dc/dcmitype/StillImage" /><dc:title></dc:title></cc:Work></rdf:RDF></metadata><defs
     id="defs6" /><g
     transform="matrix(1.3029912,0,0,-1.3029912,-0.16869236,600.26774)"
     id="g10"><g
       transform="scale(0.1,0.1)"
       id="g12"><path
         id="path14"
         style="fill:#0994dc;fill-opacity:1;fill-rule:evenodd;stroke:none"
         d="m 2303.69,4519.17 c 1219.83,0 2214.72,-994.89 2214.72,-2214.72 C 4518.41,1084.62 3523.52,89.7266 2303.69,89.7266 1083.86,89.7266 88.9688,1084.62 88.9688,2304.45 c 0,1219.83 994.8912,2214.72 2214.7212,2214.72"
         inkscape:connector-curvature="0" /><path
         id="path16"
         style="fill:none;stroke:#231f20;stroke-width:159.99899292;stroke-linecap:butt;stroke-linejoin:miter;stroke-miterlimit:2.61310005;stroke-dasharray:none;stroke-opacity:1"
         d="m 2303.69,4519.17 c 1219.83,0 2214.72,-994.89 2214.72,-2214.72 C 4518.41,1084.62 3523.52,89.7266 2303.69,89.7266 1083.86,89.7266 88.9688,1084.62 88.9688,2304.45 c 0,1219.83 994.8912,2214.72 2214.7212,2214.72 z"
         inkscape:connector-curvature="0" /><path
         id="path18"
         style="fill:#231f20;fill-opacity:1;fill-rule:evenodd;stroke:none"
         d="m 3348.13,1132.91 c 0,0 -2.56,-357.574 -137.61,-366.117 0,0 -111.75,-14.953 -129.04,-2.824 0,0 -659.86,-136.891 -1028.73,-116.477 0,0 -53.7,-39.777 -129.87,-37.98 -76.18,1.793 -167.73,97.75 -167.73,97.75 l 0,0 -353.01,195.926 0,0 c 0,0 -93.75,2.207 -128.36,26.472 -34.6,24.27 -56.25,101 -56.25,101 0,0 -17.85,-11.31 -32.12,129.73 -14.27,141.05 -123.47,1810.6 -89.36,2263.18 0,0 -27.2,172.62 155.07,277.76 182.26,105.15 451.02,231.71 451.02,231.71 0,0 282.92,63.69 501.85,66.35 218.94,2.66 1109.59,-18.32 1124.2,-393.88 0,0 141.18,20.13 144.02,-191 2.85,-211.13 154.38,-2075.15 -106.39,-2194.07 0,0 14.25,-58.97 -17.69,-87.53 l 0,0"
         inkscape:connector-curvature="0" /><path
         id="path20"
         style="fill:#ffffff;fill-opacity:1;fill-rule:evenodd;stroke:none"
         d="m 3292.89,3434.37 c -14.24,391.19 -209.74,387.98 -295.13,413.44 -85.38,25.46 -614.63,123.91 -982.74,93.49 -368.12,-30.41 -360.22,-358.91 -360.22,-358.91 0,0 -0.74,-131.71 1.99,-379.21 20.44,3.96 46.98,8.78 79,13.99 38.3,590.29 191.44,605.57 254.11,582.92 16.45,-7.48 29.06,-23.03 29.06,-23.03 0,0 -23.08,8.07 -38.21,7.7 -36.73,0.8 -89.2,-64.36 -109.21,-548.36 181,22.17 444.87,41.46 760.66,25.92 390.26,-19.21 584.45,-49.85 673.61,-69.39 -5.97,98.15 -10.71,180.61 -12.92,241.44 l 0,0"
         inkscape:connector-curvature="0" /><path
         id="path22"
         style="fill:#ffffff;fill-opacity:1;fill-rule:evenodd;stroke:none"
         d="m 2038.49,1122.78 c -186.04,24.74 -222.4,-93.27 -299.52,1386.69 -14.46,277.45 -14.76,496.16 -5.52,668.31 -31.3,-5.19 -56.9,-9.94 -76.22,-13.75 2.39,-200.65 6.98,-470.01 15.74,-801.53 20.67,-782.18 101.54,-1331.29 101.54,-1331.29 661.5,-125.011 1534.97,120.2 1534.97,120.2 95.69,501.08 31.8,1463.98 -1.43,2004.85 -91.38,19.57 -285.5,49.42 -668.43,68.27 -320.92,15.79 -588.3,-4.4 -769.56,-27.03 -6.15,-176.72 -6.68,-404.7 1.54,-698.97 31.15,-1113.89 121.2,-1336.26 166.89,-1375.75 l 0,0"
         inkscape:connector-curvature="0" /><path
         id="path24"
         style="fill:#231f20;fill-opacity:1;fill-rule:evenodd;stroke:none"
         d="m 2087.25,3346.73 c -8.64,17.06 -0.65,34.95 -2.68,52.34 l 0,0 14.72,-18.42 0,0 c 2.03,-17.4 -5.97,-35.28 2.67,-52.34 l 0,0 -14.71,18.42 0,0"
         inkscape:connector-curvature="0" /><path
         id="path26"
         style="fill:#231f20;fill-opacity:1;fill-rule:evenodd;stroke:none"
         d="m 2103.15,3358.08 c 0.28,11.96 0.56,23.69 0.84,35.65 l 0,0 14.71,-18.18 0,0 c -0.27,-11.97 -0.56,-23.93 -0.84,-35.89 l 0,0 -14.71,18.42 0,0"
         inkscape:connector-curvature="0" /><path
         id="path28"
         style="fill:#231f20;fill-opacity:1;fill-rule:evenodd;stroke:none"
         d="m 2314.2,3378.52 -14.72,18.18 0,0 c -6.88,-22.81 -3.86,-50.24 17.51,-65.64 0,0 -13.1,24.95 -2.79,47.46 l 0,0"
         inkscape:connector-curvature="0" /><path
         id="path30"
         style="fill:#231f20;fill-opacity:1;fill-rule:evenodd;stroke:none"
         d="m 2329.53,3344.93 c -4,16.71 -0.66,34.21 -6.62,50.48 l 0,0 14.71,-18.18 0,0 c 5.47,-16.5 2.86,-34.02 6.62,-50.72 l 0,0 -14.71,18.42 0,0"
         inkscape:connector-curvature="0" /><path
         id="path32"
         style="fill:#231f20;fill-opacity:1;fill-rule:evenodd;stroke:none"
         d="m 2575.63,3339.14 c -0.61,15.65 7.29,29.63 8.88,44.98 l 0,0 14.71,-18.42 0,0 c -2.06,-15.1 -9.24,-29.34 -8.88,-44.99 l 0,0 -14.71,18.43 0,0"
         inkscape:connector-curvature="0" /><path
         id="path34"
         style="fill:#231f20;fill-opacity:1;fill-rule:evenodd;stroke:none"
         d="m 2599.07,3338.58 c 2.78,14.35 5.56,28.94 4.93,43.62 l 0,0 14.72,-18.18 0,0 c 0.87,-14.92 -2.65,-29.25 -4.94,-43.86 l 0,0 -14.71,18.42 0,0"
         inkscape:connector-curvature="0" /><path
         id="path36"
         style="fill:#231f20;fill-opacity:1;fill-rule:evenodd;stroke:none"
         d="m 2825.27,3317.62 c -6.01,14.31 -2,29.12 -2.88,43.8 l 0,0 14.71,-18.43 0,0 c 0.63,-14.67 -2.89,-29.49 2.88,-43.79 l 0,0 -14.71,18.42 0,0"
         inkscape:connector-curvature="0" /><path
         id="path38"
         style="fill:#231f20;fill-opacity:1;fill-rule:evenodd;stroke:none"
         d="m 2860.24,3308.98 c -6.45,16.28 -1.9,33.27 -2.73,49.9 l 0,0 14.72,-18.18 0,0 c 0.82,-16.63 -3.73,-33.62 2.72,-50.14 l 0,0 -14.71,18.42 0,0"
         inkscape:connector-curvature="0" /><path
         id="path40"
         style="fill:#231f20;fill-opacity:1;fill-rule:evenodd;stroke:none"
         d="m 3032.21,3308.84 c 2.53,13.87 -3.96,28.92 4.42,42.16 l 0,0 14.72,-18.18 0,0 c -8.14,-13.49 -1.89,-28.3 -4.42,-42.4 l 0,0 -14.72,18.42 0,0"
         inkscape:connector-curvature="0" /><path
         id="path42"
         style="fill:#231f20;fill-opacity:1;fill-rule:evenodd;stroke:none"
         d="m 3071.19,3304.02 c 0.38,16.6 0.78,33.44 1.18,50.05 l 0,0 14.71,-18.18 0,0 c -0.39,-16.85 -0.79,-33.45 -1.18,-50.3 l 0,0 -14.71,18.43 0,0"
         inkscape:connector-curvature="0" /><path
         id="path44"
         style="fill:#231f20;fill-opacity:1;fill-rule:evenodd;stroke:none"
         d="m 2009.58,3046.38 c 0,0 121.01,-6.76 522.2,-231.18 0,0 11.35,-15.9 27.25,-4.54 15.9,11.34 23.44,-0.56 11.26,-19.81 -12.18,-19.26 -23.72,-11.17 -20.27,-30.79 3.45,-19.63 3.36,-23.53 18.89,-27.81 15.54,-4.27 23.53,3.36 27.71,14.98 4.19,11.63 -11.07,27.63 0.83,35.16 11.91,7.54 42.88,-4.91 41.87,-47.89 l 0,0 463.85,278.31 0,0 c 0,0 8.55,31.07 -23.16,12.27 -31.71,-18.79 -404.62,-252.34 -404.62,-252.34 0,0 -23.9,-18.98 -39.15,-2.99 -15.26,16 24.26,34.61 24.26,34.61 0,0 -49.49,55.89 -128.17,34.28 l 0,0 -19.35,8.28 0,0 c 0,0 75.24,41.22 175.42,-19.77 l 0,0 364.72,218.11 0,0 c 0,0 66.96,21.87 82.04,-1.94 15.07,-23.8 6.43,-58.77 -25.28,-77.57 -31.71,-18.8 -372.81,-229.64 -372.81,-229.64 0,0 16.77,-117.65 -74.36,-170.22 -91.14,-52.58 -207.96,-34.19 -241.92,17.42 -33.97,51.61 -44.67,94.86 -44.67,94.86 0,0 -197.48,78.9 -435.3,104.05 l 0,0 16.55,38.7 0,0 c 0,0 187.22,-16.14 419.76,-99.78 l 0,0 8.27,19.34 -309.56,132.37 0,0 c 0,0 -123.99,45.91 -117.78,143.48 l 0,0 552.53,-270.97 0,0 c 0,0 -3.45,19.61 4.83,38.96 l 0,0 -505.84,262.06 0,0"
         inkscape:connector-curvature="0" /><path
         id="path46"
         style="fill:#ffffff;fill-opacity:1;fill-rule:evenodd;stroke:none"
         d="m 2443.36,2711.76 65.48,-40.63 0,0 c 0,0 -43.42,-18.52 -66.5,-2.34 -23.07,16.17 1.02,42.97 1.02,42.97 l 0,0"
         inkscape:connector-curvature="0" /><path
         id="path48"
         style="fill:#ffffff;fill-opacity:1;fill-rule:evenodd;stroke:none"
         d="m 2574.98,2657.84 c 0,0 50.32,-20.72 67.23,33.6 l 0,0 47.43,22.34 0,0 c 0,0 34.24,-39.9 -32.91,-69.58 -67.14,-29.69 -70.77,-17.88 -81.75,13.64 l 0,0"
         inkscape:connector-curvature="0" /><path
         id="path50"
         style="fill:#ffffff;fill-opacity:1;fill-rule:evenodd;stroke:none"
         d="m 3422.15,3425.21 c -25.31,164.89 -91.07,137.24 -91.07,137.24 7.77,-36.66 14.72,-79.63 20.97,-127.47 17.83,3.27 44.81,4.37 70.1,-9.77 l 0,0"
         inkscape:connector-curvature="0" /><path
         id="path52"
         style="fill:#ffffff;fill-opacity:1;fill-rule:evenodd;stroke:none"
         d="m 3434.95,1500.22 c 67.41,471.39 8.96,1680.02 -6.72,1872.34 -0.71,8.69 -1.54,16.85 -2.42,24.78 -26.65,11.82 -53.97,8.43 -69.67,4.68 60.15,-508.04 47.4,-1512.22 39.5,-1907.41 l 0,0 39.31,5.61 0,0"
         inkscape:connector-curvature="0" /><path
         id="path54"
         style="fill:#ffffff;fill-opacity:1;fill-rule:evenodd;stroke:none"
         d="m 3432.51,1476.54 -37.34,-4.85 0,0 c -1.85,-89.64 -3.33,-142.43 -3.33,-142.43 16.81,27.87 30.16,79.05 40.67,147.28 l 0,0"
         inkscape:connector-curvature="0" /><path
         id="path56"
         style="fill:#ffffff;fill-opacity:1;fill-rule:evenodd;stroke:none"
         d="m 1600.17,3499.88 c -0.26,65.08 0.31,121.16 1.87,165.83 0,0 -26.71,31.38 -47.42,-171.9 14.29,3.35 29.95,5.8 45.55,6.07 l 0,0"
         inkscape:connector-curvature="0" /><path
         id="path58"
         style="fill:#ffffff;fill-opacity:1;fill-rule:evenodd;stroke:none"
         d="m 1590.73,1336.12 c 47.05,-307.57 104.88,-170.16 104.88,-170.16 0,0 -3.87,68.99 -10.04,184.51 -15.68,-7.35 -45.25,-16.28 -94.84,-14.35 l 0,0"
         inkscape:connector-curvature="0" /><path
         id="path60"
         style="fill:#ffffff;fill-opacity:1;fill-rule:evenodd;stroke:none"
         d="m 1683.77,1384.39 c -24.55,462.24 -79.08,1541.08 -83.39,2080.36 -16.87,-0.18 -33.85,-2.99 -49.12,-6.72 -15.82,-182.4 -26.73,-521.62 -16.39,-1150.91 7.85,-477.43 27.63,-764.83 50.74,-935.48 50.21,-2.73 81.19,5.4 98.16,12.75 l 0,0"
         inkscape:connector-curvature="0" /><path
         id="path62"
         style="fill:#ffffff;fill-opacity:1;fill-rule:evenodd;stroke:none"
         d="m 1246.41,1012.39 104.23,-55.222 0,0 c 0,0 -76.58,-15.789 -104.23,55.222 l 0,0"
         inkscape:connector-curvature="0" /><path
         id="path64"
         style="fill:#ffffff;fill-opacity:1;fill-rule:evenodd;stroke:none"
         d="m 1779.14,730.148 c 0,0 192.54,-39.71 268.71,-41.507 0,0 -18.54,-40.598 -118.15,-38.25 -99.61,2.343 -151.25,50.464 -150.56,79.757 l 0,0"
         inkscape:connector-curvature="0" /><path
         id="path66"
         style="fill:#ffffff;fill-opacity:1;fill-rule:evenodd;stroke:none"
         d="m 3106.16,816.152 177.16,54.457 0,0 c 0,0 -18.82,-52.32 -60.11,-63.078 -41.3,-10.75 -94.03,-9.504 -117.05,8.621 l 0,0"
         inkscape:connector-curvature="0" /><path
         id="path68"
         style="fill:#ffffff;fill-opacity:1;fill-rule:evenodd;stroke:none"
         d="m 2776.8,899.836 -1.28,44.125 0,0 c -46.13,-7.582 -95.25,-15.156 -147.64,-22.734 -12.71,-1.848 -25.33,-3.536 -37.89,-5.145 l 0,0 5.72,-42.73 0,0 c 66.2,8.269 128.76,17.796 181.09,26.484 l 0,0"
         inkscape:connector-curvature="0" /><path
         id="path70"
         style="fill:#ffffff;fill-opacity:1;fill-rule:evenodd;stroke:none"
         d="m 2921.13,926.043 3.68,44.559 0,0 c -37.17,-7.27 -77.31,-14.524 -120.15,-21.778 l 0,0 5.79,-43.301 0,0 c 67.27,11.622 110.68,20.52 110.68,20.52 l 0,0"
         inkscape:connector-curvature="0" /><path
         id="path72"
         style="fill:#ffffff;fill-opacity:1;fill-rule:evenodd;stroke:none"
         d="m 2561.84,869.258 -1.25,43.269 0,0 c -56.49,-6.586 -111.27,-11.031 -163.79,-13.75 l 0,0 5.84,-43.699 0,0 c 52.37,3.039 106.5,8.082 159.2,14.18 l 0,0"
         inkscape:connector-curvature="0" /><path
         id="path74"
         style="fill:#ffffff;fill-opacity:1;fill-rule:evenodd;stroke:none"
         d="m 3295.11,1122.43 c 3,-50.23 -107.32,-97.81 -335.06,-144.739 l 0,0 1.68,-70.195 0,0 C 2672.41,820.508 2191.8,825.961 2191.8,825.961 l 0,0 -1.54,70.156 0,0 c -227.27,5.848 -376.99,38.426 -376.99,38.426 l 0,0 26.41,-123.738 0,0 c -320.22,95.48 -585.2,295.195 -585.2,295.195 -19.65,-87.48 271.13,-188.133 456.14,-298.02 185.03,-109.89 537.42,-83.007 895.68,-56.269 358.26,26.738 677.99,159.914 677.99,159.914 45.16,174.825 10.82,210.805 10.82,210.805 l 0,0"
         inkscape:connector-curvature="0" /><path
         id="path76"
         style="fill:#ffffff;fill-opacity:1;fill-rule:evenodd;stroke:none"
         d="m 2368.32,853.367 -1.28,44.051 0,0 c -48.89,-1.977 -95.63,-2.523 -139.8,-1.992 l 0,0 6.26,-41.129 0,0 c 40.94,-2.875 86.79,-2.879 134.82,-0.93 l 0,0"
         inkscape:connector-curvature="0" /><path
         id="path78"
         style="fill:#ffffff;fill-opacity:1;fill-rule:evenodd;stroke:none"
         d="m 2797.18,1004.69 -23.44,0.55 1.78,-61.279 0,0 c 9.87,1.621 19.56,3.242 29.14,4.863 l 0,0 -7.48,55.866 0,0"
         inkscape:connector-curvature="0" /><path
         id="path80"
         style="fill:#ffffff;fill-opacity:1;fill-rule:evenodd;stroke:none"
         d="m 2582.22,974.086 -23.43,0.551 1.8,-62.11 0,0 c 9.77,1.137 19.53,2.278 29.4,3.555 l 0,0 -7.77,58.004 0,0"
         inkscape:connector-curvature="0" /><path
         id="path82"
         style="fill:#ffffff;fill-opacity:1;fill-rule:evenodd;stroke:none"
         d="m 2388.65,959.59 -23.43,0.555 1.82,-62.727 0,0 c 9.84,0.398 19.75,0.844 29.76,1.359 l 0,0 -8.15,60.813 0,0"
         inkscape:connector-curvature="0" /><path
         id="path84"
         style="fill:#ffffff;fill-opacity:1;fill-rule:evenodd;stroke:none"
         d="m 2958.77,1030.68 -29.43,-5.16 -4.53,-54.918 0,0 c 12.07,2.363 23.76,4.726 35.24,7.089 l 0,0 -1.28,52.989 0,0"
         inkscape:connector-curvature="0" /><path
         id="path86"
         style="fill:#ffffff;fill-opacity:1;fill-rule:evenodd;stroke:none"
         d="m 2227.24,895.426 -8.97,58.894 -29.29,0.688 1.28,-58.891 0,0 c 12.12,-0.308 24.43,-0.543 36.98,-0.691 l 0,0"
         inkscape:connector-curvature="0" /></g></g></svg>